<?xml version="1.0" standalone="no"?><!DOCTYPE svg PUBLIC "-//W3C//DTD SVG 1.1//EN" "http://www.w3.org/Graphics/SVG/1.1/DTD/svg11.dtd"><svg t="1646045138103" class="icon" viewBox="0 0 1024 1024" version="1.1" xmlns="http://www.w3.org/2000/svg" p-id="7406" xmlns:xlink="http://www.w3.org/1999/xlink" width="200" height="200"><defs><style type="text/css"></style></defs><path d="M618.1 896H256C114.6 896 0 781.4 0 640c0-121.1 84.1-222.6 197.1-249.2C224.1 241.4 354.8 128 512 128c155.2 0 284.6 110.5 313.8 257.1-8.3-0.7-16.8-1.1-25.3-1.1-102.3 0-192.2 53.3-243.4 133.6L799 672l2 224H618.1z" fill="#488FF9" p-id="7407"></path><path d="M800 672m-224 0a224 224 0 1 0 448 0 224 224 0 1 0-448 0Z" fill="#488FF9" p-id="7408"></path></svg>